# ProBuilder 5.2.3
# https://unity3d.com/unity/features/worldbuilding/probuilder
# 3/21/2025 2:12:08 PM

mtllib ./CheckPoint.mtl
o CheckPoint

g CheckPoint
v -31.30016 1.650208 -548.6473
v -35.18387 1.650208 -499.3004
v -35.18387 -1.64978 -499.3004
v -31.30016 -1.64978 -548.6473
v 112.8583 -1.64978 -487.6493
v 112.8583 1.650208 -487.6493
v 116.7421 1.650208 -536.9963
v 116.7421 -1.64978 -536.9963
v 63.51095 1.650208 -491.5333
v 67.39465 1.650208 -540.8802
v 10.27984 1.650208 -446.0694
v 14.16354 1.650208 -495.4173
v 59.6272 1.650208 -442.1854
v 18.04723 1.650208 -544.7643
v -42.95126 1.650208 -400.6053
v -39.06757 1.650208 -449.9532
v 6.396034 1.650208 -396.7213
v 105.0909 1.650208 -388.9542
v 108.9746 1.650208 -438.3014
v 55.7435 1.650208 -392.8382
v 2.512337 1.650177 -347.3743
v 51.85975 1.650177 -343.4912
v -50.71877 1.650177 -301.9102
v -46.83507 1.650177 -351.2583
v -1.371368 1.650177 -298.0261
v 97.32345 1.650177 -290.2593
v 101.2072 1.650177 -339.6072
v 47.97604 1.650177 -294.1411
v 44.09231 1.650177 -244.7942
v -5.255066 1.650177 -248.6792
v 89.55598 1.650162 -191.5652
v 93.43971 1.650177 -240.9121
v 40.2086 1.650177 -195.4473
v -58.48627 1.650177 -203.2141
v -54.60246 1.650177 -252.5613
v -9.138763 1.650177 -199.3333
v 36.32486 1.650162 -146.1003
v -13.02257 1.650162 -149.9851
v 81.78854 1.650154 -92.86816
v 85.67226 1.650162 -142.2183
v 32.44114 1.650162 -96.75318
v -66.25366 1.650162 -104.5203
v -62.36996 1.650162 -153.8672
v -16.90627 1.650162 -100.6382
v 28.5574 1.65015 -47.40723
v -20.78996 1.650154 -51.28834
v 74.02109 1.650146 5.825685
v 77.90482 1.65015 -43.52124
v 24.67374 1.650146 1.940674
v -74.02116 1.650146 -5.826172
v -70.13736 1.650154 -55.17335
v -24.67366 1.650147 -1.941162
v 20.78994 1.650139 51.28785
v -28.55746 1.650143 47.40577
v 66.25363 1.650131 104.5198
v 70.13737 1.650139 55.17286
v 16.90623 1.650131 100.6377
v -81.78856 1.650139 92.86769
v -77.90486 1.650143 43.52075
v -32.44116 1.650131 96.75271
v 13.02254 1.650131 149.9849
v -36.32486 1.650131 146.0999
v 58.48618 1.650116 203.2139
v 62.36992 1.650131 153.8667
v 9.138741 1.650116 199.3318
v -89.55606 1.650131 191.5647
v -85.67226 1.650131 142.2178
v -40.20866 1.650116 195.4468
v 5.255035 1.650116 248.6787
v -44.09236 1.650116 244.7969
v 50.71873 1.650116 301.9109
v 54.60247 1.650116 252.5637
v 1.371338 1.650116 298.0259
v -97.32346 1.650116 290.2588
v -93.43976 1.650116 240.9119
v -47.97606 1.650116 294.1409
v -2.51236 1.650116 347.3728
v -51.85976 1.650116 343.4907
v 42.95129 1.650085 400.6048
v 46.83503 1.650116 351.2578
v -6.396057 1.650085 396.7198
v -105.0909 1.650085 388.953
v -101.2073 1.650116 339.6057
v -55.74356 1.650085 392.838
v -10.27986 1.650085 446.0688
v -59.62726 1.650085 442.1849
v 35.18384 1.650085 499.2989
v 39.06757 1.650085 449.9518
v -14.16356 1.650085 495.4167
v -112.8584 1.650085 487.6468
v -108.9747 1.650085 438.2999
v -63.51096 1.650085 491.5318
v -18.04726 1.650085 544.7637
v -67.39467 1.650085 540.8788
v 108.9746 -1.64978 -438.3014
v -39.06757 -1.64978 -449.9532
v 105.0909 -1.64978 -388.9542
v -42.95126 -1.64978 -400.6053
v 101.2072 -1.649811 -339.6072
v -46.83507 -1.649811 -351.2583
v 97.32345 -1.649811 -290.2593
v -50.71877 -1.649811 -301.9102
v 93.43971 -1.649811 -240.9121
v -116.7421 1.650085 536.9968
v 31.30013 1.650085 548.6459
v -54.60246 -1.649811 -252.5613
v -58.48627 -1.649811 -203.2141
v 89.55598 -1.649826 -191.5652
v 85.67226 -1.649826 -142.2183
v -62.36996 -1.649826 -153.8672
v 81.78854 -1.649834 -92.86816
v -66.25366 -1.649826 -104.5203
v -70.13736 -1.649834 -55.17335
v 77.90482 -1.649837 -43.52124
v 74.02109 -1.649842 5.825684
v -74.02116 -1.649841 -5.826173
v 70.13737 -1.649849 55.17286
v -77.90486 -1.649845 43.52075
v -81.78856 -1.649849 92.86769
v 66.25363 -1.649857 104.5198
v 62.36992 -1.649857 153.8667
v -85.67226 -1.649857 142.2178
v 58.48618 -1.649872 203.2139
v -89.55606 -1.649857 191.5647
v 54.60247 -1.649872 252.5637
v -93.43976 -1.649872 240.9119
v 50.71873 -1.649872 301.9109
v -97.32346 -1.649872 290.2588
v 46.83503 -1.649872 351.2578
v -101.2073 -1.649872 339.6057
v 42.95129 -1.649902 400.6048
v -105.0909 -1.649902 388.953
v 39.06757 -1.649902 449.9518
v -108.9747 -1.649902 438.2999
v 35.18384 -1.649902 499.2989
v -112.8584 -1.649902 487.6468
v 31.30013 -1.649902 548.6459
v -116.7421 -1.649902 536.9968

vt 0.3764706 0.7490196
vt 0.1254902 0.7490196

vn -0.9969173 0 -0.07845943
vn 0.9969173 0 0.07845948
vn 0 1 0

usemtl Transparent_unlit
f 4/1/1 3/1/1 2/1/1 1/1/1
f 8/1/2 7/1/2 6/1/2 5/1/2
f 6/1/3 7/1/3 10/1/3 9/1/3
f 13/1/3 9/1/3 12/1/3 11/1/3
f 2/1/3 12/1/3 14/1/3 1/1/3
f 17/1/3 11/1/3 16/1/3 15/1/3
f 20/1/3 18/1/3 19/1/3 13/1/3
f 22/1/3 20/1/3 17/1/3 21/1/3
f 25/1/3 21/1/3 24/1/3 23/1/3
f 28/1/3 26/1/3 27/1/3 22/1/3
f 30/1/3 29/1/3 28/1/3 25/1/3
f 33/1/3 31/1/3 32/1/3 29/1/3
f 36/1/3 30/1/3 35/1/3 34/1/3
f 38/1/3 37/1/3 33/1/3 36/1/3
f 41/1/3 39/1/3 40/1/3 37/1/3
f 44/1/3 38/1/3 43/1/3 42/1/3
f 46/1/3 45/1/3 41/1/3 44/1/3
f 49/1/3 47/1/3 48/1/3 45/1/3
f 52/1/3 46/1/3 51/1/3 50/1/3
f 54/1/3 53/1/3 49/1/3 52/1/3
f 57/1/3 55/1/3 56/1/3 53/1/3
f 60/1/3 54/1/3 59/1/3 58/1/3
f 62/1/3 61/1/3 57/1/3 60/1/3
f 65/1/3 63/1/3 64/1/3 61/1/3
f 68/1/3 62/1/3 67/1/3 66/1/3
f 70/1/3 69/1/3 65/1/3 68/1/3
f 73/1/3 71/1/3 72/1/3 69/1/3
f 76/1/3 70/1/3 75/1/3 74/1/3
f 78/1/3 77/1/3 73/1/3 76/1/3
f 81/1/3 79/1/3 80/1/3 77/1/3
f 84/1/3 78/1/3 83/1/3 82/1/3
f 86/1/3 85/1/3 81/1/3 84/1/3
f 89/1/3 87/1/3 88/1/3 85/1/3
f 92/1/3 86/1/3 91/1/3 90/1/3
f 94/1/3 93/1/3 89/1/3 92/1/3
f 95/2/2 5/2/2 6/2/2 19/2/2
f 3/2/1 96/2/1 16/2/1 2/2/1
f 95/1/2 19/1/2 18/1/2 97/1/2
f 98/1/1 15/1/1 16/1/1 96/1/1
f 99/2/2 97/2/2 18/2/2 27/2/2
f 98/2/1 100/2/1 24/2/1 15/2/1
f 99/1/2 27/1/2 26/1/2 101/1/2
f 102/1/1 23/1/1 24/1/1 100/1/1
f 103/2/2 101/2/2 26/2/2 32/2/2
f 25/2/3 23/2/3 35/2/3 30/2/3
f 33/2/3 29/2/3 30/2/3 36/2/3
f 37/2/3 40/2/3 31/2/3 33/2/3
f 38/2/3 36/2/3 34/2/3 43/2/3
f 44/2/3 41/2/3 37/2/3 38/2/3
f 45/2/3 48/2/3 39/2/3 41/2/3
f 51/2/3 46/2/3 44/2/3 42/2/3
f 49/2/3 45/2/3 46/2/3 52/2/3
f 54/2/3 52/2/3 50/2/3 59/2/3
f 53/2/3 56/2/3 47/2/3 49/2/3
f 57/2/3 53/2/3 54/2/3 60/2/3
f 62/2/3 60/2/3 58/2/3 67/2/3
f 61/2/3 64/2/3 55/2/3 57/2/3
f 65/2/3 61/2/3 62/2/3 68/2/3
f 70/2/3 68/2/3 66/2/3 75/2/3
f 69/2/3 72/2/3 63/2/3 65/2/3
f 73/2/3 69/2/3 70/2/3 76/2/3
f 78/2/3 76/2/3 74/2/3 83/2/3
f 77/2/3 80/2/3 71/2/3 73/2/3
f 81/2/3 77/2/3 78/2/3 84/2/3
f 85/2/3 88/2/3 79/2/3 81/2/3
f 91/2/3 86/2/3 84/2/3 82/2/3
f 89/2/3 85/2/3 86/2/3 92/2/3
f 94/2/3 92/2/3 90/2/3 104/2/3
f 87/2/3 89/2/3 93/2/3 105/2/3
f 29/2/3 32/2/3 26/2/3 28/2/3
f 22/2/3 21/2/3 25/2/3 28/2/3
f 17/2/3 15/2/3 24/2/3 21/2/3
f 18/2/3 20/2/3 22/2/3 27/2/3
f 13/2/3 11/2/3 17/2/3 20/2/3
f 12/2/3 2/2/3 16/2/3 11/2/3
f 6/2/3 9/2/3 13/2/3 19/2/3
f 10/2/3 14/2/3 12/2/3 9/2/3
f 102/2/1 106/2/1 35/2/1 23/2/1
f 107/1/1 34/1/1 35/1/1 106/1/1
f 108/1/2 103/1/2 32/1/2 31/1/2
f 108/2/2 31/2/2 40/2/2 109/2/2
f 107/2/1 110/2/1 43/2/1 34/2/1
f 111/1/2 109/1/2 40/1/2 39/1/2
f 110/1/1 112/1/1 42/1/1 43/1/1
f 112/2/1 113/2/1 51/2/1 42/2/1
f 114/2/2 111/2/2 39/2/2 48/2/2
f 115/1/2 114/1/2 48/1/2 47/1/2
f 116/1/1 50/1/1 51/1/1 113/1/1
f 117/2/2 115/2/2 47/2/2 56/2/2
f 116/2/1 118/2/1 59/2/1 50/2/1
f 118/1/1 119/1/1 58/1/1 59/1/1
f 120/1/2 117/1/2 56/1/2 55/1/2
f 121/2/2 120/2/2 55/2/2 64/2/2
f 119/2/1 122/2/1 67/2/1 58/2/1
f 121/1/2 64/1/2 63/1/2 123/1/2
f 124/1/1 66/1/1 67/1/1 122/1/1
f 123/2/2 63/2/2 72/2/2 125/2/2
f 126/2/1 75/2/1 66/2/1 124/2/1
f 125/1/2 72/1/2 71/1/2 127/1/2
f 128/1/1 74/1/1 75/1/1 126/1/1
f 127/2/2 71/2/2 80/2/2 129/2/2
f 130/2/1 83/2/1 74/2/1 128/2/1
f 131/1/2 129/1/2 80/1/2 79/1/2
f 130/1/1 132/1/1 82/1/1 83/1/1
f 131/2/2 79/2/2 88/2/2 133/2/2
f 134/2/1 91/2/1 82/2/1 132/2/1
f 135/1/2 133/1/2 88/1/2 87/1/2
f 134/1/1 136/1/1 90/1/1 91/1/1
f 137/2/2 135/2/2 87/2/2 105/2/2
f 136/2/1 138/2/1 104/2/1 90/2/1

