# ProBuilder 5.2.3
# https://unity3d.com/unity/features/worldbuilding/probuilder
# 4/1/2025 10:45:23 AM

mtllib ./PlayerMarker.mtl
o PlayerMarker

g Quad1
v 0.5000002 1.192093E-07 -2.841812E-07
v 0.941942 0.9419421 -2.780089E-07
v 5.960464E-08 0.5000003 -4.576245E-08
v 0.01935291 0.01935285 -1.272928E-07
v 0.05805856 -0.9419418 -2.903535E-07
v -0.9419419 0.0580585 1.86484E-07

vt 0 0.5
vt 0 1
vt 0.5 1
vt 0.3333333 0.6666667
vt 0 0
vt 1 1

vn -3.200997E-07 1.567376E-07 -1

usemtl Ubershader
f 1/1/1 5/5/1 4/4/1
f 4/4/1 6/6/1 3/3/1
f 4/4/1 3/3/1 2/2/1
f 2/2/1 1/1/1 4/4/1

