# ProBuilder 5.2.3
# https://unity3d.com/unity/features/worldbuilding/probuilder
# 3/18/2025 10:49:32 AM

mtllib ./RoadBrick_Transparent_Wall_(2).mtl
o RoadBrick_Transparent_Wall (2)

g RoadBrick_Transparent_Wall (2)
v 6813.65 9669.239 -552.3295
v 6684.594 9469.523 -517.6795
v 6844.299 9644.087 -552.3295
v 6656.691 9497.676 -517.6795
v 3323.949 9669.239 -552.3295
v 3453.003 9469.523 -517.6795
v 3480.909 9497.676 -517.6795
v 3293.298 9644.087 -552.3295
v 6945.606 9847.16 -552.3295
v 6978.573 9825.131 -552.3295
v 3159.027 9825.131 -552.3295
v 3191.994 9847.16 -552.3295
v 7059.486 10037.16 -552.3295
v 7094.451 10018.47 -552.3295
v 3043.146 10018.47 -552.3295
v 3078.114 10037.16 -552.3295
v 7154.193 10237.4 -552.3295
v 7190.823 10222.23 -552.3295
v 2946.775 10222.23 -552.3295
v 2983.405 10237.4 -552.3295
v 7228.821 10445.97 -552.3295
v 7266.759 10434.46 -552.3295
v 2870.838 10434.46 -552.3295
v 2908.779 10445.97 -552.3295
v 7282.644 10660.84 -552.3295
v 7321.529 10653.11 -552.3295
v 2816.07 10653.11 -552.3295
v 2854.956 10660.84 -552.3295
v 7315.146 10879.96 -552.3295
v 7354.602 10876.07 -552.3295
v 2782.996 10876.07 -552.3295
v 2822.453 10879.96 -552.3295
v 7326.015 11101.2 -552.3295
v 7365.663 11101.2 -552.3295
v 2811.584 11101.2 -552.3295
v 2771.936 11101.2 -552.3295
v 7315.146 11322.45 -552.3295
v 7354.602 11326.33 -552.3295
v 2782.996 11326.33 -552.3295
v 2822.453 11322.45 -552.3295
v 7282.644 11541.56 -552.3295
v 7321.529 11549.3 -552.3295
v 2816.069 11549.3 -552.3295
v 2854.956 11541.56 -552.3295
v 7228.821 11756.44 -552.3295
v 7266.759 11767.95 -552.3295
v 2908.779 11756.44 -552.3295
v 2870.838 11767.95 -552.3295
v 7154.193 11965 -552.3295
v 7190.823 11980.17 -552.3295
v 2946.774 11980.17 -552.3295
v 2983.404 11965 -552.3295
v 7059.486 12165.25 -552.3295
v 7094.454 12183.94 -552.3295
v 3043.146 12183.94 -552.3295
v 3078.114 12165.25 -552.3295
v 6945.606 12355.25 -552.3295
v 6978.573 12377.27 -552.3295
v 3159.027 12377.27 -552.3295
v 3191.994 12355.25 -552.3295
v 6813.65 12533.17 -552.3295
v 6844.299 12558.31 -552.3295
v 3323.949 12533.17 -552.3295
v 3293.301 12558.31 -552.3295
v 6664.893 12697.3 -552.3295
v 6692.928 12725.33 -552.3295
v 3444.672 12725.33 -552.3295
v 3472.707 12697.3 -552.3295
v 6500.763 12846.05 -552.3295
v 6525.916 12876.7 -552.3295
v 3611.685 12876.7 -552.3295
v 3636.837 12846.05 -552.3295
v 6322.842 12978.01 -552.3295
v 6344.868 13010.98 -552.3295
v 3814.758 12978.01 -552.3295
v 3792.732 13010.98 -552.3295
v 6132.843 13091.89 -552.3295
v 6151.533 13126.86 -552.3295
v 3986.067 13126.86 -552.3295
v 4004.754 13091.89 -552.3295
v 5932.599 13186.6 -552.3295
v 5947.773 13223.23 -552.3295
v 4205.001 13186.6 -552.3295
v 4189.827 13223.23 -552.3295
v 5724.036 13261.22 -552.3295
v 5735.547 13299.16 -552.3295
v 4402.053 13299.16 -552.3295
v 4413.564 13261.22 -552.3295
v 5509.161 13315.05 -552.3295
v 5516.892 13353.93 -552.3295
v 4628.439 13315.05 -552.3295
v 4620.706 13353.93 -552.3295
v 5290.047 13347.55 -552.3295
v 5293.936 13387 -552.3295
v 4847.553 13347.55 -552.3295
v 4843.665 13387 -552.3295
v 5068.8 13358.42 -552.3295
v 5068.8 13398.07 -552.3295
v 6684.594 9469.521 -330
v 6844.299 9644.085 -364.65
v 6945.606 9847.158 -364.65
v 6813.651 9669.237 -364.65
v 6656.691 9497.674 -330
v 6978.573 9825.129 -364.65
v 7059.486 10037.16 -364.65
v 7094.451 10018.47 -364.65
v 7154.193 10237.4 -364.65
v 7190.823 10222.23 -364.65
v 7228.821 10445.96 -364.65
v 7266.759 10434.45 -364.65
v 7282.644 10660.84 -364.65
v 7321.53 10653.1 -364.65
v 7315.146 10879.95 -364.65
v 7354.603 10876.07 -364.65
v 7326.015 11101.2 -364.65
v 7365.664 11101.2 -364.65
v 7315.146 11322.44 -364.65
v 7354.603 11326.33 -364.65
v 7282.644 11541.56 -364.65
v 7321.53 11549.29 -364.65
v 7228.821 11756.44 -364.65
v 7266.759 11767.94 -364.65
v 7154.193 11965 -364.65
v 7190.823 11980.17 -364.65
v 7059.486 12165.24 -364.65
v 7094.454 12183.93 -364.65
v 6945.606 12355.24 -364.65
v 6978.573 12377.27 -364.65
v 6813.651 12533.16 -364.65
v 6844.299 12558.31 -364.65
v 6664.893 12697.29 -364.65
v 6692.928 12725.33 -364.65
v 6500.763 12846.05 -364.65
v 6525.916 12876.7 -364.65
v 6322.842 12978.01 -364.65
v 6344.868 13010.97 -364.65
v 6132.843 13091.89 -364.65
v 6151.533 13126.85 -364.65
v 5932.599 13186.6 -364.65
v 5947.773 13223.22 -364.65
v 5724.036 13261.22 -364.65
v 5735.547 13299.16 -364.65
v 5509.161 13315.04 -364.65
v 5516.892 13353.93 -364.65
v 5290.047 13347.55 -364.65
v 5293.936 13387 -364.65
v 5068.8 13358.42 -364.65
v 5068.8 13398.06 -364.65
v 4847.553 13347.55 -364.65
v 4843.665 13387 -364.65
v 4628.439 13315.04 -364.65
v 4620.706 13353.93 -364.65
v 4413.564 13261.22 -364.65
v 4402.053 13299.16 -364.65
v 4205.001 13186.6 -364.65
v 4189.827 13223.22 -364.65
v 4004.754 13091.89 -364.65
v 3986.067 13126.85 -364.65
v 3814.758 12978.01 -364.65
v 3792.732 13010.97 -364.65
v 3636.837 12846.05 -364.65
v 3611.685 12876.7 -364.65
v 3472.707 12697.29 -364.65
v 3444.672 12725.33 -364.65
v 3323.949 12533.16 -364.65
v 3293.301 12558.31 -364.65
v 3191.994 12355.24 -364.65
v 3159.027 12377.27 -364.65
v 3078.114 12165.24 -364.65
v 3043.146 12183.93 -364.65
v 2983.404 11965 -364.65
v 2946.774 11980.17 -364.65
v 2908.779 11756.44 -364.65
v 2870.838 11767.94 -364.65
v 2854.956 11541.56 -364.65
v 2816.069 11549.29 -364.65
v 2822.453 11322.44 -364.65
v 2782.996 11326.33 -364.65
v 2811.584 11101.2 -364.65
v 2771.936 11101.2 -364.65
v 2822.453 10879.95 -364.65
v 2782.996 10876.07 -364.65
v 2854.956 10660.84 -364.65
v 2816.07 10653.1 -364.65
v 2908.779 10445.96 -364.65
v 2870.838 10434.45 -364.65
v 2983.405 10237.4 -364.65
v 2946.775 10222.23 -364.65
v 3078.114 10037.16 -364.65
v 3043.146 10018.47 -364.65
v 3191.994 9847.158 -364.65
v 3159.027 9825.129 -364.65
v 3323.949 9669.237 -364.65
v 3293.298 9644.085 -364.65
v 3453.003 9469.521 -330
v 3480.909 9497.674 -330

vt 0.3750057 0.2500038
vt 0.6249943 0.7499962
vt 329.9364 11498.86
vt 364.5848 11735.46
vt 517.6158 11498.87
vt 552.2643 11735.46
vt -364.5964 12046.81
vt -364.5974 11825.29
vt -552.2759 12046.81
vt -552.2769 11825.29
vt -330.0513 2059.805
vt -330.0515 2020.168
vt -517.7308 2059.808
vt -517.7311 2020.17
vt -364.5674 11733.34
vt -329.9193 11500.81
vt -552.2469 11733.34
vt -517.5988 11500.81
vt 364.5972 11823.35
vt 364.5961 12048.75
vt 552.2766 11823.35
vt 552.2757 12048.75
vt -364.606 12238.46
vt -364.6067 12016.94
vt -552.2855 12238.46
vt -552.2862 12016.94
vt 364.5883 12014.98
vt 364.5873 12240.39
vt 552.2678 12014.98
vt 552.2668 12240.39
vt -364.5972 12313.31
vt -364.5979 12091.8
vt -552.2767 12313.31
vt -552.2774 12091.8
vt 364.6151 12089.87
vt 364.6146 12315.27
vt 552.2946 12089.87
vt 552.2941 12315.27
vt -364.5908 12270.7
vt -364.5914 12049.18
vt -552.2703 12270.7
vt -552.2709 12049.19
vt 364.6232 12047.19
vt 364.6229 12272.6
vt 552.3027 12047.2
vt 552.3025 12272.6
vt -364.6215 12110.87
vt -364.6217 11889.36
vt -552.301 12110.88
vt -552.3012 11889.36
vt 364.631 11887.45
vt 364.6309 12112.85
vt 552.3106 11887.45
vt 552.3104 12112.86
vt -364.6387 11835.54
vt -364.6388 11614.02
vt -552.3182 11835.54
vt -552.3183 11614.03
vt 364.6196 11612.07
vt 364.6195 11837.48
vt 552.2992 11612.07
vt 552.299 11837.48
vt -364.6272 11447.3
vt -364.6272 11225.78
vt -552.3067 11447.3
vt -552.3067 11225.79
vt 364.6271 11223.87
vt 364.6271 11449.28
vt 552.3066 11223.87
vt 552.3066 11449.28
vt -364.6537 10949.87
vt -364.6537 10728.35
vt -552.3332 10949.87
vt -552.3333 10728.36
vt 364.6346 10726.37
vt 364.6346 10951.77
vt 552.3141 10726.37
vt 552.3141 10951.77
vt -364.6669 10348.1
vt -364.6669 10126.58
vt -552.3464 10348.1
vt -552.3464 10126.58
vt 364.6422 10124.64
vt 364.6422 10350.04
vt 552.3217 10124.64
vt 552.3218 10350.05
vt -364.6595 9647.678
vt -364.6595 9426.164
vt -552.3389 9647.681
vt -552.3391 9426.167
vt 364.6596 9424.118
vt 364.6595 9649.523
vt 552.3391 9424.121
vt 552.339 9649.526
vt -364.6899 8855.259
vt -364.6904 8633.746
vt -552.3695 8855.262
vt -552.3699 8633.75
vt 364.6906 8631.919
vt 364.6902 8857.32
vt 552.3701 8631.922
vt 552.3696 8857.322
vt -364.7021 7978.997
vt -364.7028 7757.486
vt -552.3816 7979
vt -552.3823 7757.489
vt 364.6854 7755.654
vt 364.6849 7981.057
vt 552.3649 7755.656
vt 552.3644 7981.06
vt -364.715 7026.746
vt -364.716 6805.232
vt -552.3945 7026.75
vt -552.3955 6805.236
vt 364.7164 6803.216
vt 364.7153 7028.619
vt 552.3959 6803.219
vt 552.3948 7028.623
vt -364.7112 6007.826
vt -364.7123 5786.313
vt -552.3906 6007.83
vt -552.3918 5786.316
vt 364.7126 5784.232
vt 364.7114 6009.635
vt 552.3921 5784.236
vt 552.3909 6009.638
vt -364.727 4932.287
vt -364.7287 4710.774
vt -552.4065 4932.291
vt -552.4081 4710.778
vt 364.7468 4708.804
vt 364.7447 4934.208
vt 552.4263 4708.808
vt 552.4242 4934.212
vt -3810.094 -364.7863
vt -3588.582 -364.7863
vt -3810.096 -552.4658
vt -3588.584 -552.4659
vt 3586.835 -364.811
vt 3812.24 -364.811
vt 3586.837 -552.4906
vt 3812.242 -552.4905
vt -2652.433 -364.8059
vt -2430.92 -364.8059
vt -2652.435 -552.4854
vt -2430.922 -552.4854
vt 2428.954 -364.8284
vt 2654.359 -364.8284
vt 2428.956 -552.5079
vt 2654.36 -552.5079
vt -1470.25 -364.8233
vt -1248.736 -364.8233
vt -1470.252 -552.5029
vt -1248.738 -552.5028
vt 1246.806 -364.7787
vt 1472.21 -364.7787
vt 1246.807 -552.4583
vt 1472.211 -552.4583
vt -275.0234 -364.9059
vt -53.5115 -364.9059
vt -275.0255 -552.5854
vt -53.5132 -552.5854
vt 51.41449 -364.8546
vt 276.8143 -364.8546
vt 51.41574 -552.5341
vt 276.8151 -552.5341
vt 921.863 -364.8618
vt 1143.375 -364.8618
vt 921.862 -552.5413
vt 1143.373 -552.5413
vt -1145.33 -364.7916
vt -919.9279 -364.7916
vt -1145.329 -552.4711
vt -919.9265 -552.4711
vt 2108.836 -364.8658
vt 2330.35 -364.8658
vt 2108.836 -552.5453
vt 2330.349 -552.5453
vt -2332.207 -364.9386
vt -2106.797 -364.9386
vt -2332.206 -552.618
vt -2106.796 -552.618
vt 3274.334 -364.8658
vt 3495.846 -364.8658
vt 3274.334 -552.5453
vt 3495.846 -552.5453
vt -3497.945 -364.8665
vt -3272.549 -364.8665
vt -3497.945 -552.546
vt -3272.549 -552.546
vt 4407.17 -364.8619
vt 4628.684 -364.8619
vt 4407.17 -552.5414
vt 4628.684 -552.5414
vt -4630.493 -364.8625
vt -4405.085 -364.8625
vt -4630.492 -552.542
vt -4405.085 -552.542
vt 5496.705 -364.8541
vt 5718.218 -364.8541
vt 5496.705 -552.5336
vt 5718.218 -552.5336
vt -5720.299 -364.8548
vt -5494.893 -364.8548
vt -5720.299 -552.5342
vt -5494.893 -552.5342
vt 6532.039 -364.8429
vt 6753.55 -364.8429
vt 6532.039 -552.5223
vt 6753.55 -552.5223
vt -6755.324 -364.8435
vt -6529.925 -364.8435
vt -6755.324 -552.5229
vt -6529.926 -552.5229
vt 7503.452 -364.8286
vt 7724.965 -364.8286
vt 7503.453 -552.508
vt 7724.966 -552.508
vt -7727.017 -364.8291
vt -7501.609 -364.8291
vt -7727.018 -552.5086
vt -7501.61 -552.5086
vt 8401.624 -364.8655
vt 8623.135 -364.8655
vt 8401.625 -552.545
vt 8623.136 -552.545
vt -8625.072 -364.8663
vt -8399.67 -364.8663
vt -8625.073 -552.5458
vt -8399.671 -552.5458
vt 9217.724 -364.7985
vt 9439.238 -364.7985
vt 9217.725 -552.478
vt 9439.24 -552.478
vt -9441.128 -364.7456
vt -9215.728 -364.7456
vt -9441.129 -552.4251
vt -9215.729 -552.4251
vt 9944.112 -364.7728
vt 10165.62 -364.7728
vt 9944.114 -552.4523
vt 10165.63 -552.4523
vt -10167.52 -364.7733
vt -9942.119 -364.7733
vt -10167.52 -552.4528
vt -9942.12 -552.4528
vt 10573.51 -364.7585
vt 10795.03 -364.7585
vt 10573.51 -552.438
vt 10795.03 -552.438
vt -10796.97 -364.7185
vt -10571.57 -364.7185
vt -10796.97 -552.398
vt -10571.57 -552.3979
vt 11100.06 -364.7318
vt 11321.57 -364.7318
vt 11100.06 -552.4114
vt 11321.58 -552.4113
vt -11323.62 -364.7323
vt -11098.22 -364.7323
vt -11323.62 -552.4117
vt -11098.22 -552.4118
vt 364.603 11518.72
vt 364.6009 11740.23
vt 552.2825 11518.73
vt 552.2804 11740.24
vt -364.5968 11742.18
vt -364.5991 11516.78
vt -552.2763 11742.19
vt -552.2786 11516.78
vt 364.613 11825.3
vt 364.6115 12046.81
vt 552.2926 11825.3
vt 552.291 12046.82
vt -364.6076 12048.69
vt -364.6093 11823.29
vt -552.287 12048.69
vt -552.2888 11823.29
vt 364.6172 12016.96
vt 364.616 12238.48
vt 552.2967 12016.97
vt 552.2955 12238.48
vt -364.6204 12240.4
vt -364.6215 12014.99
vt -552.2999 12240.4
vt -552.301 12015
vt 364.628 12091.78
vt 364.6273 12313.3
vt 552.3075 12091.79
vt 552.3068 12313.3
vt -364.6275 12315.27
vt -364.6282 12089.87
vt -552.307 12315.27
vt -552.3077 12089.87
vt 364.6338 12049.14
vt 364.6333 12270.65
vt 552.3132 12049.14
vt 552.3129 12270.66
vt -364.639 12272.59
vt -364.6393 12047.19
vt -552.3185 12272.59
vt -552.3188 12047.19
vt 364.6388 11889.37
vt 364.6386 12110.89
vt 552.3184 11889.38
vt 552.3181 12110.89
vt -364.6388 12112.83
vt -364.639 11887.43
vt -552.3182 12112.83
vt -552.3185 11887.43
vt 364.642 11614.03
vt 364.6419 11835.55
vt 552.3214 11614.04
vt 552.3214 11835.55
vt -364.6435 11837.49
vt -364.6436 11612.09
vt -552.323 11837.5
vt -552.323 11612.09
vt 364.6486 11225.79
vt 364.6486 11447.3
vt 552.3281 11225.79
vt 552.328 11447.3
vt -364.6486 11449.24
vt -364.6486 11223.84
vt -552.3281 11449.24
vt -552.3281 11223.84
vt 364.6478 10728.36
vt 364.6478 10949.87
vt 552.3272 10728.36
vt 552.3273 10949.88
vt -364.6514 10951.82
vt -364.6514 10726.42
vt -552.3309 10951.82
vt -552.3309 10726.42
vt 364.6566 10126.53
vt 364.6565 10348.04
vt 552.3361 10126.53
vt 552.336 10348.04
vt -364.6543 10350
vt -364.6543 10124.59
vt -552.3337 10350
vt -552.3339 10124.6
vt 364.6614 9426.145
vt 364.6612 9647.658
vt 552.3408 9426.147
vt 552.3407 9647.661
vt -364.6573 9649.619
vt -364.6575 9424.213
vt -552.3369 9649.621
vt -552.337 9424.215
vt 364.6667 8633.87
vt 364.6662 8855.381
vt 552.3462 8633.873
vt 552.3457 8855.384
vt -364.6607 8857.318
vt -364.661 8631.916
vt -552.3402 8857.32
vt -552.3405 8631.918
vt 364.6611 7757.37
vt 364.6608 7978.881
vt 552.3407 7757.372
vt 552.3403 7978.884
vt -364.6645 7980.858
vt -364.665 7755.458
vt -552.3441 7980.86
vt -552.3445 7755.461
vt 364.6699 6805.23
vt 364.6692 7026.745
vt 552.3494 6805.233
vt 552.3488 7026.747
vt -364.669 7028.689
vt -364.6697 6803.282
vt -552.3485 7028.691
vt -552.3492 6803.285
vt 364.6757 5786.341
vt 364.6746 6007.854
vt 552.3551 5786.344
vt 552.3542 6007.857
vt -364.6744 6009.806
vt -364.6754 5784.405
vt -552.3539 6009.808
vt -552.3549 5784.407
vt 329.9599 9156.215
vt 329.9596 9195.854
vt 517.6394 9156.217
vt 517.639 9195.856
vt 330.0286 4657.829
vt 364.6773 4890.359
vt 517.7081 4657.831
vt 552.3568 4890.362
vt -364.6813 4892.478
vt -330.0329 4655.881
vt -552.3608 4892.481
vt -517.7124 4655.884

vn -0.09842927 -0.1080234 -0.9892344
vn -0.09205604 -0.1121732 -0.9894154
vn -0.1048025 -0.1038736 -0.9890535
vn 0.09842427 -0.108028 -0.9892344
vn 0.1047961 -0.1038792 -0.9890535
vn 0.09205239 -0.1121768 -0.9894153
vn -8.140906E-08 -1.096661E-07 -1
vn 0.7378078 -0.6750109 -7.024639E-06
vn -0.8032066 0.5957006 6.199278E-06
vn -0.7102534 -0.7039461 -5.47791E-06
vn -0.7378107 0.6750078 8.944152E-06
vn 0.803202 -0.5957067 -6.199344E-06
vn -0.8577321 0.514097 5.350054E-06
vn 0.8577383 -0.5140867 -7.581503E-06
vn -0.9039909 0.4275517 6.674104E-06
vn 0.903987 -0.4275599 -4.449489E-06
vn -0.9415397 0.3369022 7.708644E-06
vn 0.9415439 -0.3368905 -3.505919E-06
vn -0.9700319 0.2429775 3.792891E-06
vn 0.97003 -0.2429852 -2.528674E-06
vn -0.9891769 0.1467279 1.526954E-06
vn 0.989177 -0.146727 -4.100462E-06
vn -0.9987954 0.04906753 3.109173E-06
vn 0.9987953 -0.04907218 -3.109222E-06
vn -0.9987954 -0.04906819 -5.106382E-07
vn 0.9987952 0.04907281 -2.087855E-06
vn -0.9891772 -0.146726 -2.290401E-06
vn 0.9891772 0.1467257 -1.046588E-06
vn -0.9700319 -0.2429775 -1.269184E-06
vn 0.9700295 0.2429872 1.269341E-06
vn -0.9415396 -0.3369021 -5.25906E-06
vn 0.9415433 0.3368918 5.258901E-06
vn -0.9039917 -0.42755 -6.674079E-06
vn 0.903996 0.427541 4.449293E-06
vn -0.8577309 -0.5140989 -8.025111E-06
vn 0.8577279 0.5141039 8.025191E-06
vn -0.8032066 -0.5957006 -7.209237E-06
vn 0.8032005 0.5957088 7.209381E-06
vn -0.740955 -0.6715547 -8.555279E-06
vn 0.7409539 0.6715559 1.048303E-05
vn -0.6715568 -0.740953 -9.819146E-06
vn 0.6715676 0.7409434 1.156617E-05
vn -0.5956991 -0.8032076 -1.09883E-05
vn 0.595698 0.8032085 1.253813E-05
vn -0.5141022 -0.857729 -1.205167E-05
vn 0.5141029 0.8577285 8.926126E-06
vn -0.4275571 -0.9039883 -1.770272E-05
vn 0.4275477 0.9039928 1.411138E-05
vn -0.3368897 -0.9415441 -1.469756E-05
vn 0.3368892 0.9415443 9.798371E-06
vn -0.2429754 -0.9700325 -1.514226E-05
vn 0.2429816 0.9700309 2.018965E-05
vn -0.1467279 -0.9891769 -1.544111E-05
vn 0.1467168 0.9891785 1.544113E-05
vn -0.04907193 -0.9987953 -1.559125E-05
vn 0.04908213 0.9987947 1.559124E-05
vn 0.04907204 -0.9987953 -1.559125E-05
vn -0.04908234 0.9987947 1.559124E-05
vn 0.1467283 -0.9891769 -1.544111E-05
vn -0.146715 0.9891788 1.544114E-05
vn 0.2429754 -0.9700325 -1.514226E-05
vn -0.2429841 0.9700302 1.514223E-05
vn 0.3368897 -0.9415441 -1.959675E-05
vn -0.3368893 0.9415443 1.959675E-05
vn 0.427552 -0.9039907 -1.466752E-05
vn -0.4275473 0.903993 9.407587E-06
vn 0.514108 -0.8577254 -1.338914E-05
vn -0.5141034 0.8577282 1.338918E-05
vn 0.5956987 -0.8032081 -1.331303E-05
vn -0.5956986 0.8032081 8.358747E-06
vn 0.6715563 -0.7409535 -1.156632E-05
vn -0.671567 0.7409438 1.156618E-05
vn 0.7409545 -0.6715553 -1.048302E-05
vn -0.7409551 0.6715546 1.144687E-05
vn 0.7102072 -0.7039927 -8.250109E-06
vn 0.7378094 0.6750092 6.06485E-06
vn -0.7378083 -0.6750103 -7.024634E-06

usemtl M_Cnsw_66_Near_Road_03_Transparent
f 4/1/3 1/1/1 3/1/2 2/1/1
f 8/2/6 5/2/4 7/2/5 6/2/4
f 1/2/7 9/2/7 10/2/7 3/2/7
f 12/1/7 5/1/7 8/1/7 11/1/7
f 9/1/7 13/1/7 14/1/7 10/1/7
f 16/2/7 12/2/7 11/2/7 15/2/7
f 13/2/7 17/2/7 18/2/7 14/2/7
f 20/1/7 16/1/7 15/1/7 19/1/7
f 17/1/7 21/1/7 22/1/7 18/1/7
f 24/2/7 20/2/7 19/2/7 23/2/7
f 21/2/7 25/2/7 26/2/7 22/2/7
f 28/1/7 24/1/7 23/1/7 27/1/7
f 25/1/7 29/1/7 30/1/7 26/1/7
f 32/2/7 28/2/7 27/2/7 31/2/7
f 33/2/7 34/2/7 30/2/7 29/2/7
f 32/1/7 31/1/7 36/1/7 35/1/7
f 33/1/7 37/1/7 38/1/7 34/1/7
f 40/2/7 35/2/7 36/2/7 39/2/7
f 41/2/7 42/2/7 38/2/7 37/2/7
f 44/1/7 40/1/7 39/1/7 43/1/7
f 45/1/7 46/1/7 42/1/7 41/1/7
f 44/2/7 43/2/7 48/2/7 47/2/7
f 49/2/7 50/2/7 46/2/7 45/2/7
f 52/1/7 47/1/7 48/1/7 51/1/7
f 53/1/7 54/1/7 50/1/7 49/1/7
f 56/2/7 52/2/7 51/2/7 55/2/7
f 57/2/7 58/2/7 54/2/7 53/2/7
f 60/1/7 56/1/7 55/1/7 59/1/7
f 61/1/7 62/1/7 58/1/7 57/1/7
f 60/2/7 59/2/7 64/2/7 63/2/7
f 65/2/7 66/2/7 62/2/7 61/2/7
f 68/1/7 63/1/7 64/1/7 67/1/7
f 69/1/7 70/1/7 66/1/7 65/1/7
f 72/2/7 68/2/7 67/2/7 71/2/7
f 73/2/7 74/2/7 70/2/7 69/2/7
f 72/1/7 71/1/7 76/1/7 75/1/7
f 77/1/7 78/1/7 74/1/7 73/1/7
f 80/2/7 75/2/7 76/2/7 79/2/7
f 81/2/7 82/2/7 78/2/7 77/2/7
f 80/1/7 79/1/7 84/1/7 83/1/7
f 85/1/7 86/1/7 82/1/7 81/1/7
f 88/2/7 83/2/7 84/2/7 87/2/7
f 89/2/7 90/2/7 86/2/7 85/2/7
f 88/1/7 87/1/7 92/1/7 91/1/7
f 93/1/7 94/1/7 90/1/7 89/1/7
f 91/2/7 92/2/7 96/2/7 95/2/7
f 97/2/7 98/2/7 94/2/7 93/2/7
f 97/1/7 95/1/7 96/1/7 98/1/7
f 2/5/8 3/6/8 100/4/8 99/3/8
f 9/9/9 1/10/9 102/8/9 101/7/9
f 4/13/10 2/14/10 99/12/10 103/11/10
f 1/17/11 4/18/11 103/16/11 102/15/11
f 3/21/12 10/22/12 104/20/12 100/19/12
f 13/25/13 9/26/13 101/24/13 105/23/13
f 10/29/14 14/30/14 106/28/14 104/27/14
f 17/33/15 13/34/15 105/32/15 107/31/15
f 14/37/16 18/38/16 108/36/16 106/35/16
f 21/41/17 17/42/17 107/40/17 109/39/17
f 18/45/18 22/46/18 110/44/18 108/43/18
f 25/49/19 21/50/19 109/48/19 111/47/19
f 22/53/20 26/54/20 112/52/20 110/51/20
f 29/57/21 25/58/21 111/56/21 113/55/21
f 26/61/22 30/62/22 114/60/22 112/59/22
f 33/65/23 29/66/23 113/64/23 115/63/23
f 30/69/24 34/70/24 116/68/24 114/67/24
f 37/73/25 33/74/25 115/72/25 117/71/25
f 34/77/26 38/78/26 118/76/26 116/75/26
f 41/81/27 37/82/27 117/80/27 119/79/27
f 38/85/28 42/86/28 120/84/28 118/83/28
f 45/89/29 41/90/29 119/88/29 121/87/29
f 42/93/30 46/94/30 122/92/30 120/91/30
f 49/97/31 45/98/31 121/96/31 123/95/31
f 46/101/32 50/102/32 124/100/32 122/99/32
f 53/105/33 49/106/33 123/104/33 125/103/33
f 50/109/34 54/110/34 126/108/34 124/107/34
f 57/113/35 53/114/35 125/112/35 127/111/35
f 54/117/36 58/118/36 128/116/36 126/115/36
f 61/121/37 57/122/37 127/120/37 129/119/37
f 58/125/38 62/126/38 130/124/38 128/123/38
f 65/129/39 61/130/39 129/128/39 131/127/39
f 62/133/40 66/134/40 132/132/40 130/131/40
f 69/137/41 65/138/41 131/136/41 133/135/41
f 66/141/42 70/142/42 134/140/42 132/139/42
f 73/145/43 69/146/43 133/144/43 135/143/43
f 70/149/44 74/150/44 136/148/44 134/147/44
f 77/153/45 73/154/45 135/152/45 137/151/45
f 74/157/46 78/158/46 138/156/46 136/155/46
f 81/161/47 77/162/47 137/160/47 139/159/47
f 78/165/48 82/166/48 140/164/48 138/163/48
f 85/169/49 81/170/49 139/168/49 141/167/49
f 82/173/50 86/174/50 142/172/50 140/171/50
f 89/177/51 85/178/51 141/176/51 143/175/51
f 86/181/52 90/182/52 144/180/52 142/179/52
f 93/185/53 89/186/53 143/184/53 145/183/53
f 90/189/54 94/190/54 146/188/54 144/187/54
f 97/193/55 93/194/55 145/192/55 147/191/55
f 94/197/56 98/198/56 148/196/56 146/195/56
f 95/201/57 97/202/57 147/200/57 149/199/57
f 98/205/58 96/206/58 150/204/58 148/203/58
f 91/209/59 95/210/59 149/208/59 151/207/59
f 96/213/60 92/214/60 152/212/60 150/211/60
f 88/217/61 91/218/61 151/216/61 153/215/61
f 92/221/62 87/222/62 154/220/62 152/219/62
f 83/225/63 88/226/63 153/224/63 155/223/63
f 87/229/64 84/230/64 156/228/64 154/227/64
f 80/233/65 83/234/65 155/232/65 157/231/65
f 84/237/66 79/238/66 158/236/66 156/235/66
f 75/241/67 80/242/67 157/240/67 159/239/67
f 79/245/68 76/246/68 160/244/68 158/243/68
f 72/249/69 75/250/69 159/248/69 161/247/69
f 76/253/70 71/254/70 162/252/70 160/251/70
f 68/257/71 72/258/71 161/256/71 163/255/71
f 71/261/72 67/262/72 164/260/72 162/259/72
f 63/265/73 68/266/73 163/264/73 165/263/73
f 67/269/74 64/270/74 166/268/74 164/267/74
f 60/273/12 63/274/12 165/272/12 167/271/12
f 64/277/9 59/278/9 168/276/9 166/275/9
f 56/281/14 60/282/14 167/280/14 169/279/14
f 59/285/13 55/286/13 170/284/13 168/283/13
f 52/289/16 56/290/16 169/288/16 171/287/16
f 55/293/15 51/294/15 172/292/15 170/291/15
f 47/297/18 52/298/18 171/296/18 173/295/18
f 51/301/17 48/302/17 174/300/17 172/299/17
f 44/305/20 47/306/20 173/304/20 175/303/20
f 48/309/19 43/310/19 176/308/19 174/307/19
f 40/313/22 44/314/22 175/312/22 177/311/22
f 43/317/21 39/318/21 178/316/21 176/315/21
f 35/321/24 40/322/24 177/320/24 179/319/24
f 39/325/23 36/326/23 180/324/23 178/323/23
f 32/329/26 35/330/26 179/328/26 181/327/26
f 36/333/25 31/334/25 182/332/25 180/331/25
f 28/337/28 32/338/28 181/336/28 183/335/28
f 31/341/27 27/342/27 184/340/27 182/339/27
f 24/345/30 28/346/30 183/344/30 185/343/30
f 27/349/29 23/350/29 186/348/29 184/347/29
f 20/353/32 24/354/32 185/352/32 187/351/32
f 23/357/31 19/358/31 188/356/31 186/355/31
f 16/361/34 20/362/34 187/360/34 189/359/34
f 19/365/33 15/366/33 190/364/33 188/363/33
f 12/369/36 16/370/36 189/368/36 191/367/36
f 15/373/35 11/374/35 192/372/35 190/371/35
f 5/377/38 12/378/38 191/376/38 193/375/38
f 11/381/37 8/382/37 194/380/37 192/379/37
f 6/385/75 7/386/75 196/384/75 195/383/75
f 7/389/76 5/390/76 193/388/76 196/387/76
f 8/393/77 6/394/77 195/392/77 194/391/77

