# ProBuilder 5.2.3
# https://unity3d.com/unity/features/worldbuilding/probuilder
# 3/21/2025 11:00:13 AM

mtllib ./StartLine.mtl
o StartLine

g StartLine
v 18.2485 -73.03732 -1.499817
v 19.34658 -87.09225 -1.499817
v 19.34658 -87.09225 1.500183
v 18.2485 -73.03732 1.500183
v 10.56228 89.42972 -1.499908
v 11.66049 75.26761 -1.499908
v 11.66049 75.26761 1.500092
v 10.56228 89.42972 1.500092
v -3.658298 -74.20334 1.499969
v -3.658298 -74.20334 -1.500031
v -10.56235 -89.42941 -1.499817
v -10.24662 74.09964 -1.500031
v -19.34653 87.09573 -1.499908
v -10.24662 74.09964 1.499969
v -10.56235 -89.42941 1.500183
v -19.34653 87.09573 1.500092

vt 0.1215686 0.7647059

vn 0.9969619 0.07789063 0
vn 0.9970069 0.07731324 0
vn -0.05315096 0.9985865 0
vn 5.423842E-06 -6.89338E-06 -1
vn 0.053239 -0.9985818 0
vn 0.07790498 -0.9969608 0
vn -0.07780015 0.996969 0
vn 0.9990147 0.04438094 0
vn -0.9987642 -0.04970014 0

usemtl StartEndMat
f 4/1/1 3/1/1 2/1/1 1/1/1
f 8/1/2 7/1/2 6/1/2 5/1/2
f 10/1/3 9/1/3 4/1/3 1/1/3
f 11/1/4 10/1/4 1/1/4 2/1/4
f 13/1/4 12/1/4 10/1/4 11/1/4
f 5/1/4 6/1/4 12/1/4 13/1/4
f 12/1/5 6/1/5 7/1/5 14/1/5
f 15/1/6 11/1/6 2/1/6 3/1/6
f 5/1/7 13/1/7 16/1/7 8/1/7
f 14/1/8 9/1/8 10/1/8 12/1/8
f 16/1/9 13/1/9 11/1/9 15/1/9

