# ProBuilder 5.2.3
# https://unity3d.com/unity/features/worldbuilding/probuilder
# 3/18/2025 11:51:46 AM

mtllib ./StartPos.mtl
o StartPos

g StartLine
v 681.4779 3118.935 -331.5
v 681.4779 3118.935 -328.5
v 680.3798 3132.99 -331.5
v 680.3798 3132.99 -328.5
v 673.7918 3281.295 -331.5001
v 673.7918 3281.295 -328.5001
v 672.6936 3295.457 -331.5001
v 672.6936 3295.457 -328.5001
v 658.473 3131.824 -328.5002
v 658.473 3131.824 -331.5002
v 651.569 3116.598 -331.5
v 651.8847 3280.127 -331.5002
v 642.7848 3293.123 -331.5001
v 651.8847 3280.127 -328.5002
v 651.569 3116.598 -328.5
v 642.7848 3293.123 -328.5001

vt 0.1215686 0.7647059

vn 0.9969619 0.07789063 0
vn 0.9970068 0.07731456 0
vn -0.05311752 0.9985883 0
vn 6.936475E-06 5.419328E-07 -1
vn 0.05326119 -0.9985806 0
vn 0.07788897 -0.9969621 0
vn -0.07780013 0.9969689 0
vn 0.9990147 0.04438068 0
vn -0.9987642 -0.04970048 0

usemtl M_Cnsw_66_StartGate
f 3/1/1 4/1/1 2/1/1 1/1/1
f 7/1/2 8/1/2 6/1/2 5/1/2
f 3/1/3 10/1/3 9/1/3 4/1/3
f 1/1/4 11/1/4 10/1/4 3/1/4
f 11/1/4 13/1/4 12/1/4 10/1/4
f 5/1/4 12/1/4 13/1/4 7/1/4
f 14/1/5 12/1/5 5/1/5 6/1/5
f 2/1/6 15/1/6 11/1/6 1/1/6
f 8/1/7 7/1/7 13/1/7 16/1/7
f 12/1/8 14/1/8 9/1/8 10/1/8
f 15/1/9 16/1/9 13/1/9 11/1/9

