# ProBuilder 5.2.3
# https://unity3d.com/unity/features/worldbuilding/probuilder
# 3/18/2025 10:49:32 AM

mtllib ./RoadBrick_Transparent_Wall_(5).mtl
o RoadBrick_Transparent_Wall (5)

g RoadBrick_Transparent_Wall (5)
v 5161.2 4781.035 -537.2556
v 5121.6 4540.801 -545.1756
v 5161.2 4540.801 -537.2559
v 5121.6 4781.035 -545.1755
v 5121.6 5021.155 -545.1759
v 5161.2 5021.155 -537.2559
v 5121.6 5260.146 -545.1758
v 5161.2 5260.146 -537.2559
v 5161.2 5504.401 -537.2559
v 5121.6 5504.401 -545.1759
v 5161.2 5715.601 -537.2559
v 5121.6 5715.601 -545.1759
v 5121.6 5926.801 -545.1759
v 5161.2 5926.801 -537.2559
v 5161.2 6138.001 -537.2559
v 5121.6 6138.001 -545.1759
v 5121.6 6349.201 -545.1758
v 5161.2 6349.201 -537.2559
v 5121.6 6560.401 -545.1758
v 5161.2 6560.401 -537.2559
v 5161.2 6771.601 -537.2559
v 5121.6 6771.601 -545.1758
v 5161.2 6982.802 -537.2559
v 5121.6 6982.802 -545.1758
v 5161.2 7194.001 -537.2559
v 5121.6 7194.001 -545.1758
v 5121.6 7405.202 -545.1759
v 5161.2 7405.202 -537.2559
v 5121.6 7616.401 -545.1758
v 5161.2 7616.401 -537.2559
v 5161.2 7817.702 -537.2559
v 5121.6 7817.702 -545.1759
v 5161.2 8019.001 -537.2559
v 5121.597 8019.001 -545.1758
v 5121.6 8220.302 -545.1759
v 5161.2 8220.302 -537.2559
v 5161.2 8366.562 -537.2559
v 5121.6 8366.562 -545.1758
v 5161.2 8515.688 -537.2559
v 5121.6 8515.688 -545.1759
v 5161.2 8670.773 -537.2559
v 5121.6 8670.773 -545.1759
v 5121.6 8835.407 -545.1758
v 5161.2 8835.407 -537.2559
v 5161.2 9014.771 -537.2559
v 5121.6 9016.934 -545.1759
v 5181.537 9200.447 -537.2559
v 5142.171 9204.759 -545.1758
v 5203.986 9405.398 -537.2559
v 5164.62 9409.709 -545.1759
v 5190.153 9642.812 -545.1758
v 5229.517 9638.501 -537.2559
v 5252.229 9845.837 -537.2559
v 5213.496 9855.941 -545.1759
v 5285.751 10026.21 -545.1758
v 5322.204 10010.75 -537.2559
v 5392.782 10177.06 -537.2559
v 5356.327 10192.53 -545.1759
v 5464.749 10346.66 -537.2559
v 5428.296 10362.13 -545.1758
v 5538.153 10519.64 -537.2559
v 5501.699 10535.11 -545.1759
v 5121.6 4540.8 -343.8597
v 5161.2 4540.8 -335.94
v 5161.2 4781.034 -335.9397
v 5121.6 4781.034 -343.8597
v 5121.6 6349.2 -343.86
v 5121.6 6138 -343.86
v 5121.6 5021.154 -343.86
v 5161.2 5021.154 -335.94
v 5121.6 5260.146 -343.86
v 5161.2 5260.146 -335.94
v 5121.6 5926.8 -343.86
v 5121.6 5715.6 -343.86
v 5161.2 5504.4 -335.94
v 5121.6 5504.4 -343.86
v 5161.2 5715.6 -335.94
v 5161.2 5926.8 -335.94
v 5121.6 7405.2 -343.86
v 5121.6 7194 -343.86
v 5161.2 6138 -335.94
v 5161.2 6349.2 -335.94
v 5121.6 6560.4 -343.86
v 5161.2 6560.4 -335.94
v 5121.6 8835.405 -343.86
v 5121.6 8670.771 -343.86
v 5161.2 6771.6 -335.94
v 5121.6 6771.6 -343.86
v 5161.2 6982.8 -335.94
v 5121.6 6982.8 -343.86
v 5161.2 7194 -335.94
v 5161.2 7405.2 -335.94
v 5121.6 7616.4 -343.86
v 5161.2 7616.4 -335.94
v 5121.6 8220.3 -343.86
v 5121.597 8019 -343.86
v 5161.2 7817.7 -335.94
v 5121.6 7817.7 -343.86
v 5161.2 8019 -335.94
v 5161.2 8220.3 -335.94
v 5190.153 9642.81 -343.86
v 5164.62 9409.707 -343.86
v 5161.2 8366.56 -335.94
v 5121.6 8366.56 -343.86
v 5161.2 8515.687 -335.94
v 5121.6 8515.687 -343.86
v 5161.2 8670.771 -335.94
v 5161.2 8835.405 -335.94
v 5121.6 9016.932 -343.86
v 5161.2 9014.77 -335.94
v 5181.537 9200.445 -335.94
v 5142.171 9204.757 -343.86
v 5203.986 9405.396 -335.94
v 5229.517 9638.499 -335.94
v 5252.229 9845.835 -335.94
v 5213.496 9855.939 -343.86
v 5285.751 10026.21 -343.86
v 5322.204 10010.75 -335.94
v 5538.153 10519.64 -335.94
v 5501.7 10535.11 -343.86
v 5392.782 10177.06 -335.94
v 5356.327 10192.53 -343.86
v 5464.749 10346.66 -335.94
v 5428.296 10362.13 -343.86

vt 0.3750057 0.2500038
vt 0.6249943 0.7499962
vt 5121.604 -343.8817
vt 5161.204 -335.962
vt 5121.604 -545.1976
vt 5161.204 -537.278
vt 335.94 4540.8
vt 335.9397 4781.034
vt 537.2559 4540.801
vt 537.2556 4781.035
vt -343.8597 4781.034
vt -343.8597 4540.8
vt -545.1755 4781.035
vt -545.1756 4540.801
vt -343.86 6349.2
vt -343.86 6138
vt -545.1758 6349.201
vt -545.1759 6138.001
vt -343.86 5021.154
vt -545.1759 5021.155
vt 335.94 5021.154
vt 537.2559 5021.155
vt -343.86 5260.146
vt -545.1758 5260.146
vt 335.94 5260.146
vt 537.2559 5260.146
vt -343.86 5926.8
vt -343.86 5715.6
vt -545.1759 5926.801
vt -545.1759 5715.601
vt 335.94 5504.4
vt 537.2559 5504.401
vt -343.86 5504.4
vt -545.1759 5504.401
vt 335.94 5715.6
vt 537.2559 5715.601
vt 335.94 5926.8
vt 537.2559 5926.801
vt -343.86 7405.2
vt -343.86 7194
vt -545.1759 7405.202
vt -545.1758 7194.001
vt 335.94 6138
vt 537.2559 6138.001
vt 335.94 6349.2
vt 537.2559 6349.201
vt -343.86 6560.4
vt -545.1758 6560.401
vt 335.94 6560.4
vt 537.2559 6560.401
vt -343.86 8835.405
vt -343.86 8670.771
vt -545.1758 8835.407
vt -545.1759 8670.773
vt 335.94 6771.6
vt 537.2559 6771.601
vt -343.86 6771.6
vt -545.1758 6771.601
vt 335.94 6982.8
vt 537.2559 6982.802
vt -343.86 6982.8
vt -545.1758 6982.802
vt 335.94 7194
vt 537.2559 7194.001
vt 335.94 7405.2
vt 537.2559 7405.202
vt -343.86 7616.4
vt -545.1758 7616.401
vt 335.94 7616.4
vt 537.2559 7616.401
vt -343.86 8220.374
vt -343.86 8019.075
vt -545.1759 8220.376
vt -545.1758 8019.076
vt 335.94 7817.7
vt 537.2559 7817.702
vt -343.86 7817.7
vt -545.1759 7817.702
vt 335.94 8019
vt 537.2559 8019.001
vt -343.8476 8018.925
vt -343.8476 7817.625
vt -545.1634 8018.927
vt -545.1635 7817.627
vt 335.94 8220.3
vt 537.2559 8220.302
vt -343.8545 10150.62
vt -343.8545 9916.119
vt -545.1703 10150.62
vt -545.1704 9916.121
vt 335.94 8366.56
vt 537.2559 8366.562
vt -343.86 8366.56
vt -343.86 8220.3
vt -545.1758 8366.562
vt -545.1759 8220.302
vt 335.94 8515.687
vt 537.2559 8515.688
vt -343.86 8515.687
vt -545.1759 8515.688
vt 335.94 8670.771
vt 537.2559 8670.773
vt 335.94 8835.405
vt 537.2559 8835.407
vt -343.86 9016.932
vt -545.1759 9016.934
vt 335.94 9014.77
vt 537.2559 9014.771
vt 335.9345 9523.13
vt 335.9345 9709.916
vt 537.2504 9523.132
vt 537.2504 9709.918
vt -343.842 9709.882
vt -343.8421 9520.934
vt -545.1579 9709.884
vt -545.158 9520.936
vt 335.9345 9709.927
vt 335.9345 9916.104
vt 537.2504 9709.929
vt 537.2504 9916.106
vt -343.8545 9916.085
vt -343.8545 9709.909
vt -545.1704 9916.087
vt -545.1703 9709.911
vt 335.9345 9916.061
vt 335.9344 10150.56
vt 537.2504 9916.063
vt 537.2503 10150.56
vt 335.9344 10150.64
vt 335.9344 10359.22
vt 537.2503 10150.64
vt 537.2504 10359.22
vt -343.8544 10364.96
vt -343.8545 10150.56
vt -545.1703 10364.96
vt -545.1703 10150.56
vt -343.8382 11294.38
vt -343.8385 11109.42
vt -545.1541 11294.39
vt -545.1544 11109.42
vt 335.9184 11115.22
vt 335.9181 11294.36
vt 537.2343 11115.22
vt 537.2339 11294.37
vt -988.3875 -336.0987
vt -948.7869 -344.0187
vt -988.3864 -537.4146
vt -948.7853 -545.3346
vt 335.9052 11294.4
vt 335.9047 11475.07
vt 537.221 11294.4
vt 537.2206 11475.07
vt -343.8269 11475.05
vt -343.8273 11294.38
vt -545.1428 11475.05
vt -545.1432 11294.38
vt 335.9067 11475.04
vt 335.9063 11659.28
vt 537.2226 11475.05
vt 537.2221 11659.28
vt -343.8265 11659.3
vt -343.8269 11475.06
vt -545.1423 11659.3
vt -545.1428 11475.06
vt 335.9042 11659.29
vt 335.9038 11847.2
vt 537.2201 11659.3
vt 537.2197 11847.21
vt -343.8127 11847.2
vt -343.8133 11659.28
vt -545.1286 11847.2
vt -545.1291 11659.29

vn 0.1961158 -3.117691E-07 -0.9805807
vn 0.1949417 -0.02135247 -0.9805824
vn 0.1805331 -0.07660605 -0.9805811
vn 9.701492E-07 -1 -4.850895E-06
vn 1 0 0
vn -1 0 0
vn -0.9940541 0.1088872 1.056401E-06
vn 0.9940549 -0.1088806 -1.056337E-06
vn -0.9205465 0.390633 3.789841E-06
vn 0.9205553 -0.3906124 -3.78964E-06
vn 0.3906658 0.9205326 1.339622E-05

usemtl M_Cnsw_66_Near_Road_03_Transparent
f 4/1/1 1/1/1 3/1/1 2/1/1
f 6/2/1 1/2/1 4/2/1 5/2/1
f 8/1/1 6/1/1 5/1/1 7/1/1
f 8/2/1 7/2/1 10/2/1 9/2/1
f 9/1/1 10/1/1 12/1/1 11/1/1
f 14/2/1 11/2/1 12/2/1 13/2/1
f 14/1/1 13/1/1 16/1/1 15/1/1
f 18/2/1 15/2/1 16/2/1 17/2/1
f 20/1/1 18/1/1 17/1/1 19/1/1
f 20/2/1 19/2/1 22/2/1 21/2/1
f 21/1/1 22/1/1 24/1/1 23/1/1
f 23/2/1 24/2/1 26/2/1 25/2/1
f 28/1/1 25/1/1 26/1/1 27/1/1
f 30/2/1 28/2/1 27/2/1 29/2/1
f 30/1/1 29/1/1 32/1/1 31/1/1
f 31/2/1 32/2/1 34/2/1 33/2/1
f 36/1/1 33/1/1 34/1/1 35/1/1
f 36/2/1 35/2/1 38/2/1 37/2/1
f 37/1/1 38/1/1 40/1/1 39/1/1
f 39/2/1 40/2/1 42/2/1 41/2/1
f 44/1/1 41/1/1 42/1/1 43/1/1
f 44/2/1 43/2/1 46/2/1 45/2/1
f 45/1/2 46/1/2 48/1/2 47/1/2
f 47/2/2 48/2/2 50/2/2 49/2/2
f 52/1/2 49/1/2 50/1/2 51/1/2
f 51/2/2 54/2/2 53/2/2 52/2/2
f 56/1/3 53/1/3 54/1/3 55/1/3
f 56/2/3 55/2/3 58/2/3 57/2/3
f 57/1/3 58/1/3 60/1/3 59/1/3
f 59/2/3 60/2/3 62/2/3 61/2/3
f 2/5/4 3/6/4 64/4/4 63/3/4
f 3/9/5 1/10/5 65/8/5 64/7/5
f 4/13/6 2/14/6 63/12/6 66/11/6
f 17/17/6 16/18/6 68/16/6 67/15/6
f 5/20/6 4/13/6 66/11/6 69/19/6
f 1/10/5 6/22/5 70/21/5 65/8/5
f 7/24/6 5/20/6 69/19/6 71/23/6
f 6/22/5 8/26/5 72/25/5 70/21/5
f 13/29/6 12/30/6 74/28/6 73/27/6
f 8/26/5 9/32/5 75/31/5 72/25/5
f 10/34/6 7/24/6 71/23/6 76/33/6
f 9/32/5 11/36/5 77/35/5 75/31/5
f 12/30/6 10/34/6 76/33/6 74/28/6
f 11/36/5 14/38/5 78/37/5 77/35/5
f 27/41/6 26/42/6 80/40/6 79/39/6
f 14/38/5 15/44/5 81/43/5 78/37/5
f 16/18/6 13/29/6 73/27/6 68/16/6
f 15/44/5 18/46/5 82/45/5 81/43/5
f 19/48/6 17/17/6 67/15/6 83/47/6
f 18/46/5 20/50/5 84/49/5 82/45/5
f 43/53/6 42/54/6 86/52/6 85/51/6
f 20/50/5 21/56/5 87/55/5 84/49/5
f 22/58/6 19/48/6 83/47/6 88/57/6
f 21/56/5 23/60/5 89/59/5 87/55/5
f 24/62/6 22/58/6 88/57/6 90/61/6
f 23/60/5 25/64/5 91/63/5 89/59/5
f 26/42/6 24/62/6 90/61/6 80/40/6
f 25/64/5 28/66/5 92/65/5 91/63/5
f 29/68/6 27/41/6 79/39/6 93/67/6
f 28/66/5 30/70/5 94/69/5 92/65/5
f 35/73/6 34/74/6 96/72/6 95/71/6
f 30/70/5 31/76/5 97/75/5 94/69/5
f 32/78/6 29/68/6 93/67/6 98/77/6
f 31/76/5 33/80/5 99/79/5 97/75/5
f 34/83/6 32/84/6 98/82/6 96/81/6
f 33/80/5 36/86/5 100/85/5 99/79/5
f 51/89/7 50/90/7 102/88/7 101/87/7
f 36/86/5 37/92/5 103/91/5 100/85/5
f 38/95/6 35/96/6 95/94/6 104/93/6
f 37/92/5 39/98/5 105/97/5 103/91/5
f 40/100/6 38/95/6 104/93/6 106/99/6
f 39/98/5 41/102/5 107/101/5 105/97/5
f 42/54/6 40/100/6 106/99/6 86/52/6
f 41/102/5 44/104/5 108/103/5 107/101/5
f 46/106/6 43/53/6 85/51/6 109/105/6
f 44/104/5 45/108/5 110/107/5 108/103/5
f 45/111/8 47/112/8 111/110/8 110/109/8
f 48/115/7 46/116/7 109/114/7 112/113/7
f 47/119/8 49/120/8 113/118/8 111/117/8
f 50/123/7 48/124/7 112/122/7 102/121/7
f 49/127/8 52/128/8 114/126/8 113/125/8
f 52/131/8 53/132/8 115/130/8 114/129/8
f 54/135/7 51/136/7 101/134/7 116/133/7
f 55/139/9 54/140/9 116/138/9 117/137/9
f 53/143/10 56/144/10 118/142/10 115/141/10
f 61/147/11 62/148/11 120/146/11 119/145/11
f 56/151/10 57/152/10 121/150/10 118/149/10
f 58/155/9 55/156/9 117/154/9 122/153/9
f 57/159/10 59/160/10 123/158/10 121/157/10
f 60/163/9 58/164/9 122/162/9 124/161/9
f 59/167/10 61/168/10 119/166/10 123/165/10
f 62/171/9 60/172/9 124/170/9 120/169/9

